PathFileType	4	(X/Y/Z)	C:\Users\chris\Documents\GitHub\baseballds\vids\pitch2_Sports2D\pitch2_Sports2D_px_person00.trc
DataRate	CameraRate	NumFrames	NumMarkers	Units	OrigDataRate	OrigDataStartFrame	OrigNumFrames
30	30	8	22	m	30	182	243
Frame#	Time	Hip			RHip			RKnee			RAnkle			RBigToe			RSmallToe			RHeel			LHip			LKnee			LAnkle			LBigToe			LSmallToe			LHeel			Neck			Head			Nose			RShoulder			RElbow			RWrist			LShoulder			LElbow			LWrist		
		X1	Y1	Z1	X2	Y2	Z2	X3	Y3	Z3	X4	Y4	Z4	X5	Y5	Z5	X6	Y6	Z6	X7	Y7	Z7	X8	Y8	Z8	X9	Y9	Z9	X10	Y10	Z10	X11	Y11	Z11	X12	Y12	Z12	X13	Y13	Z13	X14	Y14	Z14	X15	Y15	Z15	X16	Y16	Z16	X17	Y17	Z17	X18	Y18	Z18	X19	Y19	Z19	X20	Y20	Z20	X21	Y21	Z21	X22	Y22	Z22
182	6.066666666666666	451.96873673522117	958.7715232464014	0.0	430.3580768278733	1003.0146035556113	0.0	472.7141414079201	1295.4131561523927	0.0	400.7402190832024	1567.8601338525204	0.0	529.7312423849601	1614.5055992659331	0.0	513.7932907423029	1631.8676870418826	0.0	371.9201550193231	1610.029398609289	0.0	508.1280782096278	944.9797303756834	0.0	615.4779348734248	738.9667414615286	0.0	725.7490669188999	996.2331550369399	0.0	845.0946123505677	958.2909290312207	0.0	841.6911948848302	970.5025036617748	0.0	729.727520843718	1072.7000082822271	0.0	387.15370689733464	612.7827971574449	0.0	449.2782450325247	449.6782379715885	0.0	501.9137816379704	558.5973587541488	0.0	312.6902480860856	678.2937011551711	0.0	461.7530174324369	774.5703776353158	0.0	522.6501349289547	590.0104959602058	0.0	445.5829806587607	658.8637737404006	0.0	593.7794020273228	738.5206432559964	0.0	618.0462379012891	612.4162208784934	0.0
183	6.1	453.22159487820613	961.6577670563865	0.0	429.3320165173682	1005.4935358462654	0.0	476.0270993717046	1296.875933700012	0.0	401.4794577312802	1568.6047713928963	0.0	530.8899372516078	1615.1414503216536	0.0	512.0952779204482	1629.8877034792333	0.0	374.0285252265559	1609.0085455798474	0.0	507.95420934100093	949.1848171461917	0.0	619.3035462830446	750.2547587576537	0.0	708.2558421146782	1018.2772071340075	0.0	829.7294804839892	995.1975557723013	0.0	824.3231590681685	1002.027840428741	0.0	706.1087486238548	1092.2594194147423	0.0	387.00047810151705	617.7408530740538	0.0	448.2900810663182	454.1954811136007	0.0	500.52300754189685	557.4317779104347	0.0	311.9104020351154	684.4224311274303	0.0	463.222712413827	783.0854857764418	0.0	524.0077336677523	599.3826990345406	0.0	451.7758316865635	664.3673614664701	0.0	600.3140206007492	743.4911717058937	0.0	624.2131110057137	621.8802759649476	0.0
184	6.133333333333333	452.3098109433984	965.2589987914223	0.0	423.1237754980231	1007.2870576094828	0.0	477.8382290153867	1299.1546302824213	0.0	400.9744904179814	1568.6885565385296	0.0	531.9249882191679	1615.2541420696684	0.0	509.49481124853514	1627.524410695054	0.0	375.20951808284076	1608.5040854576755	0.0	505.60872723844494	953.847712311401	0.0	635.6332386515971	778.9175963660414	0.0	695.4975728334242	1059.0763989940756	0.0	819.8219169289232	1050.4259344218688	0.0	812.9259163203727	1051.3357979354755	0.0	686.0856576236098	1128.2962817461425	0.0	388.138524173323	622.0296276569967	0.0	448.81956231653044	459.09301998039757	0.0	500.94554433552315	558.1919311780564	0.0	311.7803909320389	689.9465017905216	0.0	465.33938823962626	793.4698208765747	0.0	526.0031523691349	612.6926085210927	0.0	459.400802990571	669.9079106153729	0.0	605.6269732084428	754.6844060272642	0.0	625.6476077706416	633.5827349078058	0.0
185	6.166666666666667	450.23087010830744	969.3315449359254	0.0	415.63913786365794	1009.8344242161983	0.0	478.50664995400297	1301.685965804954	0.0	399.6571739262573	1568.78007572792	0.0	531.5055923194858	1616.506478870893	0.0	507.0684639948027	1627.6561221822162	0.0	373.86537791214926	1608.553199563456	0.0	503.32290057629854	958.2247250628564	0.0	656.7878184261705	823.9685042204098	0.0	687.0872842075636	1114.1041911426105	0.0	811.450487097522	1122.5461237425516	0.0	804.8160082407363	1118.2022700214836	0.0	671.0159469791578	1174.5074721176368	0.0	389.74137068005734	626.2240847712877	0.0	452.2650330129047	464.0903140150834	0.0	504.12864526004216	563.2812209857817	0.0	312.1529311580253	696.3532728570196	0.0	466.0617807828003	809.1715519726838	0.0	525.1505090111351	633.3882029160461	0.0	462.96246055875787	675.1674144630292	0.0	604.2057156988496	773.5550895495097	0.0	624.0075450801008	651.6847439247285	0.0
186	6.2	448.62965589924227	973.7076075814066	0.0	410.3792072907986	1013.2321081817364	0.0	479.5831377015497	1302.5562938838784	0.0	399.0461215829813	1569.649359295459	0.0	529.6216484979591	1617.5135822397685	0.0	504.66025754788154	1629.0753624137988	0.0	371.02461923014084	1608.914081452109	0.0	503.4111531385931	962.5817251441459	0.0	674.1044783783033	882.1894389279375	0.0	682.1580935966601	1175.0779476130206	0.0	805.6637350842822	1206.6992496731875	0.0	800.386740440951	1197.7593641499095	0.0	660.7654492311019	1225.3485288678694	0.0	393.68718652951594	630.6748842410993	0.0	457.5242710211818	468.9288972042788	0.0	509.7471982278873	572.3765307903458	0.0	313.27689654145115	703.2438106378386	0.0	460.52130033591516	832.8873951364435	0.0	521.8599573904972	665.7680287512238	0.0	464.88493866307147	679.9668336267823	0.0	593.1550783550261	799.7554990186582	0.0	617.8666782326688	677.8857332820318	0.0
187	6.233333333333333	447.979306334212	979.031494054911	0.0	406.9398361641545	1017.748569806672	0.0	483.2529228924026	1302.3971322959273	0.0	400.01953633697894	1571.2471797305425	0.0	528.0911996431468	1616.980134805638	0.0	501.766129358026	1629.2166571777464	0.0	369.0443442521371	1609.4065235735486	0.0	505.1892182560286	968.7479611680337	0.0	683.1198549386331	948.6062382496674	0.0	680.7804084477409	1238.2002580987178	0.0	804.0580800237208	1292.5763398069848	0.0	799.8753179350861	1280.2163867404936	0.0	655.0102545190315	1281.819719046673	0.0	401.6783070148362	635.8414216257164	0.0	462.67729562448557	473.8691085121189	0.0	517.4556559267777	582.3691629779405	0.0	315.57505345757886	709.8735223713679	0.0	444.3751035674672	863.4456150664541	0.0	521.3976258161991	710.3474762486198	0.0	471.07600925465175	684.0292167481942	0.0	574.4645365572114	826.4524502422944	0.0	608.061382247418	712.2636751336076	0.0
188	6.266666666666667	447.90302704805356	986.4422106737279	0.0	403.5230438226778	1025.5807827517506	0.0	490.36642363206283	1303.709119828644	0.0	401.74310028609887	1571.4448199660105	0.0	528.1951959822214	1617.2785714826173	0.0	498.2380951001769	1629.2495776700553	0.0	368.4485844277672	1608.1205881115225	0.0	506.84418281816625	978.5979311669992	0.0	683.3770221765112	1018.8471208065932	0.0	683.4107148494697	1302.084169171245	0.0	805.5729438469976	1370.5150827326827	0.0	802.5073188801156	1355.9851302308166	0.0	654.8797109270113	1343.2712821245605	0.0	412.58023587551605	643.0080047797069	0.0	466.16346324881795	479.98647949018425	0.0	527.4356828021632	590.6276573669179	0.0	318.6423787779298	717.9623300537977	0.0	418.22122517108517	896.5751297170301	0.0	525.7916106035301	762.7068808891156	0.0	482.9524965681905	688.1186785370826	0.0	554.2817149842824	845.4688692644745	0.0	600.7058239662912	755.7231820874646	0.0
189	6.3	448.6943128080727	997.2808854813084	0.0	400.746023771738	1037.0636107836	0.0	500.23657702058506	1306.4937857138636	0.0	403.10816344949137	1569.2236181494318	0.0	529.6779656413137	1619.639295488743	0.0	495.07596394820166	1630.985950291929	0.0	368.3532422383279	1604.1455940738392	0.0	508.28657380519223	991.3997159951043	0.0	676.242376749263	1090.194560893063	0.0	690.5633766457457	1362.0368642880644	0.0	809.9746450751989	1436.1887912246343	0.0	808.4228872519833	1419.714632263484	0.0	662.197704349694	1401.783217389299	0.0	423.8971231235208	653.2386890646025	0.0	468.7350560828012	489.13141842914075	0.0	538.41217599844	597.4793680021435	0.0	322.777689937555	730.1740641406885	0.0	388.20297207918065	927.7774123460927	0.0	530.2956613268225	818.6431523198868	0.0	496.1228981891804	694.527075038226	0.0	540.1728074607704	853.0065073499561	0.0	600.3888831751224	805.0566174273147	0.0
